<?xml version="1.0" encoding="UTF-8"?>
<svg xmlns="http://www.w3.org/2000/svg" xmlns:xlink="http://www.w3.org/1999/xlink" width="48px" height="48px" viewBox="0 0 48 48" version="1.1">
<g id="surface1">
<path style=" stroke:none;fill-rule:nonzero;fill:rgb(0%,0%,0%);fill-opacity:1;" d="M 42.253906 1.980469 C 41.785156 2.226562 41.351562 2.472656 41.285156 2.515625 C 41.09375 2.6875 40.722656 2.878906 40.605469 2.878906 C 40.507812 2.878906 39.441406 3.589844 39.324219 3.742188 C 39.292969 3.773438 39.175781 3.835938 39.058594 3.878906 C 38.941406 3.910156 38.6875 4.082031 38.492188 4.253906 C 38.300781 4.433594 37.769531 4.753906 37.320312 4.964844 C 36.875 5.191406 36.414062 5.457031 36.296875 5.5625 C 36.179688 5.667969 36 5.753906 35.902344 5.753906 C 35.796875 5.753906 35.617188 5.902344 35.488281 6.085938 C 35.359375 6.253906 35.074219 6.523438 34.859375 6.671875 C 34.648438 6.808594 34.261719 7.097656 33.996094 7.289062 C 33.730469 7.492188 33.464844 7.664062 33.398438 7.664062 C 33.347656 7.671875 33.039062 7.886719 32.726562 8.152344 C 32.417969 8.417969 32.121094 8.632812 32.078125 8.632812 C 32.023438 8.632812 31.84375 8.761719 31.683594 8.910156 C 31.257812 9.3125 30 10.125 29.734375 10.175781 C 29.425781 10.242188 28.828125 10.730469 28.1875 11.457031 C 27.902344 11.785156 27.507812 12.214844 27.3125 12.394531 C 27.132812 12.585938 26.910156 12.90625 26.8125 13.109375 C 26.71875 13.3125 26.503906 13.695312 26.324219 13.960938 C 26.152344 14.226562 25.949219 14.578125 25.863281 14.761719 C 25.707031 15.101562 25.011719 16.21875 24.765625 16.496094 C 24.214844 17.179688 23.980469 17.53125 23.980469 17.703125 C 23.980469 17.808594 23.9375 17.914062 23.882812 17.945312 C 23.828125 17.988281 23.660156 18.339844 23.5 18.746094 C 23.167969 19.628906 23 19.8125 22.785156 19.523438 C 22.5625 19.195312 21.515625 18.765625 19.769531 18.308594 C 19.140625 18.136719 18.308594 17.796875 18.148438 17.628906 C 17.96875 17.457031 17.328125 17.265625 16.882812 17.265625 C 16.699219 17.265625 16.488281 17.191406 16.410156 17.105469 C 16.335938 17.019531 16.1875 16.945312 16.082031 16.945312 C 15.976562 16.945312 15.859375 16.902344 15.824219 16.839844 C 15.792969 16.785156 15.558594 16.765625 15.304688 16.796875 C 14.960938 16.847656 14.8125 16.816406 14.675781 16.679688 C 14.535156 16.550781 14.398438 16.519531 14.164062 16.570312 C 13.941406 16.625 13.800781 16.605469 13.746094 16.519531 C 13.683594 16.410156 13.589844 16.421875 13.289062 16.53125 C 12.980469 16.636719 12.875 16.636719 12.746094 16.53125 C 12.640625 16.445312 12.523438 16.433594 12.394531 16.496094 C 12.289062 16.550781 11.839844 16.65625 11.402344 16.730469 C 10.507812 16.882812 9.507812 17.296875 9.410156 17.550781 C 9.335938 17.753906 9.824219 18.222656 10.101562 18.222656 C 10.210938 18.222656 10.550781 18.320312 10.871094 18.4375 C 11.191406 18.554688 11.691406 18.683594 11.988281 18.714844 C 12.5 18.777344 13.011719 18.96875 13.90625 19.429688 C 14.140625 19.554688 14.644531 19.800781 15.027344 19.992188 C 15.410156 20.183594 15.890625 20.503906 16.082031 20.71875 C 16.285156 20.929688 16.507812 21.101562 16.570312 21.101562 C 16.6875 21.101562 17.050781 21.453125 17.359375 21.867188 C 17.488281 22.039062 17.445312 22.082031 17.019531 22.261719 C 16.742188 22.378906 16.421875 22.59375 16.292969 22.742188 C 16.15625 22.902344 15.996094 23.019531 15.933594 23.019531 C 15.785156 23.019531 15.429688 23.402344 15.261719 23.765625 C 14.960938 24.40625 14.878906 25.683594 15.144531 25.683594 C 15.195312 25.683594 15.238281 25.726562 15.238281 25.789062 C 15.238281 25.84375 15.15625 25.898438 15.058594 25.898438 C 14.960938 25.898438 14.921875 25.929688 14.953125 25.960938 C 14.984375 26.003906 14.953125 26.132812 14.867188 26.257812 C 14.695312 26.492188 14.652344 26.75 14.792969 26.75 C 14.835938 26.75 14.984375 26.546875 15.132812 26.3125 C 15.335938 25.980469 15.453125 25.898438 15.613281 25.941406 C 16.722656 26.226562 17.136719 26.386719 17.359375 26.601562 C 17.5 26.738281 17.691406 26.855469 17.777344 26.855469 C 17.871094 26.855469 18.019531 26.929688 18.117188 27.015625 C 18.457031 27.324219 19.757812 27.71875 20.769531 27.816406 C 21.3125 27.878906 22.039062 27.984375 22.371094 28.070312 C 22.699219 28.15625 23.585938 28.242188 24.339844 28.273438 C 25.535156 28.328125 25.769531 28.304688 26.238281 28.125 C 26.824219 27.902344 26.792969 27.890625 28.613281 28.421875 C 30.191406 28.890625 30.296875 28.945312 31.042969 29.679688 C 31.386719 30.011719 31.652344 30.203125 31.652344 30.117188 C 31.652344 29.871094 32.035156 29.703125 32.28125 29.839844 C 32.578125 29.988281 33.164062 29.96875 33.398438 29.785156 C 33.515625 29.703125 33.699219 29.628906 33.792969 29.628906 C 33.933594 29.628906 33.996094 29.519531 34.019531 29.234375 C 34.050781 28.882812 34.09375 28.828125 34.390625 28.765625 C 34.871094 28.667969 35.308594 28.371094 35.234375 28.175781 C 35.199219 28.09375 35.148438 27.964844 35.105469 27.878906 C 35.074219 27.804688 35.179688 27.589844 35.328125 27.398438 C 35.519531 27.1875 35.628906 26.910156 35.648438 26.609375 C 35.667969 26.367188 35.710938 26.015625 35.753906 25.824219 C 35.820312 25.546875 35.785156 25.460938 35.605469 25.34375 C 35.476562 25.269531 35.382812 25.109375 35.382812 24.980469 C 35.382812 24.800781 35.296875 24.734375 34.988281 24.683594 C 34.765625 24.648438 34.421875 24.617188 34.242188 24.617188 C 33.941406 24.617188 33.890625 24.585938 33.890625 24.351562 C 33.890625 24.117188 33.847656 24.085938 33.507812 24.085938 C 33.292969 24.085938 32.824219 24.160156 32.472656 24.253906 C 32.109375 24.339844 31.46875 24.425781 31.035156 24.4375 C 30.339844 24.457031 30.222656 24.425781 30.117188 24.246094 C 30.054688 24.128906 29.988281 24.011719 29.96875 23.980469 C 29.957031 23.957031 29.574219 23.902344 29.136719 23.863281 C 28.273438 23.777344 27.816406 23.5625 27.816406 23.234375 C 27.816406 23.117188 27.964844 22.796875 28.136719 22.519531 C 28.316406 22.242188 28.453125 21.910156 28.453125 21.773438 C 28.453125 21.644531 28.550781 21.484375 28.667969 21.421875 C 28.828125 21.335938 28.882812 21.195312 28.882812 20.886719 C 28.882812 20.429688 29.019531 20.269531 29.253906 20.460938 C 29.53125 20.6875 29.734375 20.503906 29.734375 20.035156 C 29.734375 19.714844 29.785156 19.589844 29.925781 19.535156 C 30.191406 19.4375 30.414062 19.183594 30.585938 18.757812 C 30.660156 18.554688 30.851562 18.191406 31 17.96875 C 31.40625 17.359375 31.40625 17.359375 31.652344 16.816406 C 31.769531 16.550781 31.949219 16.261719 32.035156 16.199219 C 32.109375 16.125 32.183594 16.007812 32.183594 15.933594 C 32.183594 15.859375 32.28125 15.675781 32.398438 15.527344 C 32.515625 15.378906 32.609375 15.164062 32.609375 15.039062 C 32.609375 14.921875 32.675781 14.78125 32.75 14.738281 C 32.835938 14.695312 32.984375 14.527344 33.089844 14.355469 C 33.1875 14.195312 33.347656 14.066406 33.421875 14.066406 C 33.507812 14.066406 33.570312 13.960938 33.570312 13.8125 C 33.570312 13.683594 33.6875 13.4375 33.835938 13.277344 C 33.984375 13.117188 34.101562 12.925781 34.101562 12.851562 C 34.101562 12.777344 34.21875 12.617188 34.359375 12.5 C 34.496094 12.371094 34.648438 12.128906 34.6875 11.945312 C 34.730469 11.765625 34.847656 11.5625 34.957031 11.511719 C 35.0625 11.457031 35.179688 11.265625 35.222656 11.105469 C 35.296875 10.753906 35.785156 10.199219 36.746094 9.378906 C 37.109375 9.070312 37.40625 8.761719 37.40625 8.695312 C 37.40625 8.632812 37.628906 8.34375 37.886719 8.066406 C 38.226562 7.714844 38.367188 7.46875 38.367188 7.257812 C 38.367188 7.011719 38.449219 6.894531 38.738281 6.726562 C 39.1875 6.457031 39.441406 6 39.21875 5.863281 C 39.003906 5.734375 39.195312 5.53125 40.027344 4.988281 C 40.402344 4.753906 40.710938 4.488281 40.710938 4.410156 C 40.710938 4.328125 40.945312 4.101562 41.242188 3.921875 C 41.53125 3.730469 41.777344 3.496094 41.777344 3.398438 C 41.777344 3.304688 42.03125 3.058594 42.332031 2.867188 C 42.90625 2.503906 43.203125 2.066406 43.140625 1.726562 C 43.109375 1.554688 43 1.589844 42.253906 1.980469 Z M 17.265625 24.011719 C 17.265625 24.449219 17.125 24.726562 16.914062 24.726562 C 16.859375 24.726562 16.839844 24.597656 16.871094 24.449219 C 16.890625 24.289062 16.847656 24.117188 16.765625 24.019531 C 16.570312 23.828125 16.753906 23.550781 17.0625 23.550781 C 17.234375 23.550781 17.265625 23.636719 17.265625 24.011719 Z M 16.304688 24.671875 C 16.304688 24.757812 16.210938 24.832031 16.09375 24.832031 C 15.976562 24.832031 15.878906 24.757812 15.878906 24.671875 C 15.878906 24.585938 15.976562 24.511719 16.09375 24.511719 C 16.210938 24.511719 16.304688 24.585938 16.304688 24.671875 Z M 15.496094 25.109375 C 15.675781 25.183594 15.730469 25.46875 15.558594 25.46875 C 15.507812 25.46875 15.464844 25.417969 15.484375 25.34375 C 15.496094 25.269531 15.453125 25.214844 15.378906 25.203125 C 15.21875 25.203125 15.058594 25.042969 15.21875 25.042969 C 15.273438 25.042969 15.398438 25.078125 15.496094 25.109375 Z M 15.496094 25.109375 "/>
<path style=" stroke:none;fill-rule:nonzero;fill:rgb(0%,0%,0%);fill-opacity:1;" d="M 7.671875 34.050781 L 7.671875 35.273438 L 8.046875 35.273438 C 8.410156 35.273438 8.417969 35.265625 8.417969 34.839844 C 8.417969 34.328125 8.578125 34.371094 8.675781 34.902344 C 8.75 35.253906 8.769531 35.273438 9.175781 35.273438 L 9.589844 35.273438 L 9.378906 34.847656 C 9.175781 34.445312 9.175781 34.402344 9.335938 34.15625 C 9.539062 33.847656 9.484375 33.070312 9.25 32.921875 C 9.175781 32.867188 8.792969 32.824219 8.398438 32.824219 L 7.671875 32.824219 Z M 8.738281 33.625 C 8.738281 33.792969 8.675781 33.890625 8.578125 33.890625 C 8.484375 33.890625 8.417969 33.792969 8.417969 33.625 C 8.417969 33.453125 8.484375 33.355469 8.578125 33.355469 C 8.675781 33.355469 8.738281 33.453125 8.738281 33.625 Z M 8.738281 33.625 "/>
<path style=" stroke:none;fill-rule:nonzero;fill:rgb(0%,0%,0%);fill-opacity:1;" d="M 10.230469 34.050781 L 10.230469 35.273438 L 10.921875 35.273438 C 11.59375 35.273438 11.617188 35.265625 11.617188 35.007812 C 11.617188 34.773438 11.574219 34.742188 11.242188 34.742188 C 10.945312 34.742188 10.871094 34.699219 10.871094 34.53125 C 10.871094 34.359375 10.945312 34.316406 11.191406 34.316406 C 11.457031 34.316406 11.511719 34.273438 11.511719 34.050781 C 11.511719 33.824219 11.457031 33.785156 11.191406 33.785156 C 10.945312 33.785156 10.871094 33.730469 10.871094 33.582031 C 10.871094 33.421875 10.957031 33.355469 11.222656 33.335938 C 11.476562 33.3125 11.574219 33.25 11.59375 33.058594 C 11.628906 32.835938 11.59375 32.824219 10.933594 32.824219 L 10.230469 32.824219 Z M 10.230469 34.050781 "/>
<path style=" stroke:none;fill-rule:nonzero;fill:rgb(0%,0%,0%);fill-opacity:1;" d="M 12.46875 34.050781 L 12.46875 35.273438 L 13.066406 35.273438 C 14.035156 35.273438 14.066406 35.234375 14.066406 34.007812 C 14.066406 32.804688 14.089844 32.824219 13.097656 32.824219 L 12.46875 32.824219 Z M 13.429688 34.050781 C 13.429688 34.6875 13.394531 34.847656 13.269531 34.847656 C 13.140625 34.847656 13.109375 34.6875 13.109375 34.050781 C 13.109375 33.410156 13.140625 33.25 13.269531 33.25 C 13.394531 33.25 13.429688 33.410156 13.429688 34.050781 Z M 13.429688 34.050781 "/>
<path style=" stroke:none;fill-rule:nonzero;fill:rgb(0%,0%,0%);fill-opacity:1;" d="M 16.199219 34.050781 L 16.199219 35.273438 L 16.519531 35.273438 C 16.828125 35.273438 16.839844 35.253906 16.839844 34.796875 C 16.839844 34.335938 16.847656 34.316406 17.15625 34.316406 C 17.402344 34.316406 17.476562 34.273438 17.476562 34.101562 C 17.476562 33.933594 17.402344 33.890625 17.15625 33.890625 C 16.890625 33.890625 16.839844 33.847656 16.839844 33.625 C 16.839844 33.390625 16.882812 33.355469 17.210938 33.355469 C 17.542969 33.355469 17.585938 33.324219 17.585938 33.089844 C 17.585938 32.835938 17.5625 32.824219 16.890625 32.824219 L 16.199219 32.824219 Z M 16.199219 34.050781 "/>
<path style=" stroke:none;fill-rule:nonzero;fill:rgb(0%,0%,0%);fill-opacity:1;" d="M 18.222656 34.050781 L 18.222656 35.273438 L 18.96875 35.273438 C 19.695312 35.273438 19.714844 35.265625 19.714844 35.007812 C 19.714844 34.773438 19.671875 34.742188 19.34375 34.742188 L 18.96875 34.742188 L 18.96875 32.824219 L 18.222656 32.824219 Z M 18.222656 34.050781 "/>
<path style=" stroke:none;fill-rule:nonzero;fill:rgb(0%,0%,0%);fill-opacity:1;" d="M 20.25 32.878906 C 20.25 32.898438 20.398438 33.25 20.578125 33.644531 C 20.769531 34.050781 20.941406 34.570312 20.972656 34.816406 C 21.015625 35.199219 21.058594 35.273438 21.261719 35.273438 C 21.464844 35.273438 21.507812 35.210938 21.550781 34.765625 C 21.582031 34.488281 21.699219 34.050781 21.824219 33.785156 C 21.941406 33.515625 22.058594 33.195312 22.09375 33.058594 C 22.144531 32.835938 22.113281 32.8125 21.816406 32.84375 C 21.527344 32.878906 21.464844 32.929688 21.390625 33.273438 C 21.261719 33.792969 21.144531 33.785156 21.058594 33.25 C 20.996094 32.84375 20.972656 32.824219 20.621094 32.824219 C 20.417969 32.824219 20.25 32.84375 20.25 32.878906 Z M 20.25 32.878906 "/>
<path style=" stroke:none;fill-rule:nonzero;fill:rgb(0%,0%,0%);fill-opacity:1;" d="M 24.566406 32.953125 C 24.449219 33.304688 23.980469 35.0625 23.980469 35.15625 C 23.980469 35.222656 24.117188 35.273438 24.289062 35.273438 C 24.5 35.273438 24.609375 35.210938 24.648438 35.0625 C 24.683594 34.921875 24.800781 34.847656 24.96875 34.847656 C 25.140625 34.847656 25.246094 34.921875 25.289062 35.0625 C 25.332031 35.210938 25.4375 35.273438 25.628906 35.273438 C 25.917969 35.273438 25.929688 35.265625 25.863281 34.765625 C 25.832031 34.488281 25.726562 33.996094 25.621094 33.675781 C 25.523438 33.355469 25.429688 33.027344 25.40625 32.953125 C 25.386719 32.886719 25.203125 32.824219 24.992188 32.824219 C 24.777344 32.824219 24.585938 32.886719 24.566406 32.953125 Z M 25.085938 34.125 C 25.140625 34.347656 25.117188 34.421875 24.992188 34.421875 C 24.808594 34.421875 24.800781 34.378906 24.894531 34.019531 C 24.980469 33.730469 24.992188 33.742188 25.085938 34.125 Z M 25.085938 34.125 "/>
<path style=" stroke:none;fill-rule:nonzero;fill:rgb(0%,0%,0%);fill-opacity:1;" d="M 26.75 33.027344 C 26.589844 33.335938 26.621094 34.859375 26.792969 35.082031 C 26.886719 35.222656 27.078125 35.273438 27.464844 35.273438 C 28.058594 35.273438 28.242188 35.148438 28.242188 34.722656 C 28.242188 34.464844 28.199219 34.421875 27.921875 34.421875 C 27.667969 34.421875 27.601562 34.464844 27.601562 34.648438 C 27.601562 34.773438 27.550781 34.847656 27.472656 34.828125 C 27.378906 34.796875 27.324219 34.507812 27.304688 34.019531 C 27.28125 33.378906 27.304688 33.25 27.441406 33.25 C 27.527344 33.25 27.601562 33.347656 27.601562 33.464844 C 27.601562 33.632812 27.675781 33.675781 27.921875 33.675781 C 28.199219 33.675781 28.242188 33.632812 28.242188 33.378906 C 28.242188 32.953125 28.058594 32.824219 27.421875 32.824219 C 26.984375 32.824219 26.84375 32.867188 26.75 33.027344 Z M 26.75 33.027344 "/>
<path style=" stroke:none;fill-rule:nonzero;fill:rgb(0%,0%,0%);fill-opacity:1;" d="M 29.359375 33.429688 C 29.265625 33.773438 29.117188 34.261719 29.03125 34.519531 C 28.816406 35.199219 28.839844 35.273438 29.210938 35.273438 C 29.445312 35.273438 29.550781 35.222656 29.59375 35.0625 C 29.636719 34.921875 29.746094 34.847656 29.914062 34.847656 C 30.085938 34.847656 30.203125 34.921875 30.234375 35.0625 C 30.277344 35.199219 30.382812 35.273438 30.554688 35.273438 C 30.808594 35.273438 30.808594 35.265625 30.746094 34.6875 C 30.703125 34.359375 30.585938 33.824219 30.480469 33.484375 C 30.296875 32.910156 30.277344 32.878906 29.914062 32.84375 C 29.550781 32.8125 29.542969 32.8125 29.359375 33.429688 Z M 29.925781 34.433594 C 29.765625 34.539062 29.667969 34.09375 29.796875 33.804688 C 29.851562 33.667969 29.894531 33.707031 29.96875 33.984375 C 30.042969 34.253906 30.03125 34.371094 29.925781 34.433594 Z M 29.925781 34.433594 "/>
<path style=" stroke:none;fill-rule:nonzero;fill:rgb(0%,0%,0%);fill-opacity:1;" d="M 31.652344 34.050781 L 31.652344 35.273438 L 32.332031 35.273438 C 33.238281 35.273438 33.304688 35.191406 33.292969 33.964844 C 33.28125 33.28125 33.238281 32.996094 33.132812 32.921875 C 33.046875 32.867188 32.6875 32.824219 32.324219 32.824219 L 31.652344 32.824219 Z M 32.609375 34.050781 C 32.609375 34.6875 32.578125 34.847656 32.449219 34.847656 C 32.324219 34.847656 32.292969 34.6875 32.292969 34.050781 C 32.292969 33.410156 32.324219 33.25 32.449219 33.25 C 32.578125 33.25 32.609375 33.410156 32.609375 34.050781 Z M 32.609375 34.050781 "/>
<path style=" stroke:none;fill-rule:nonzero;fill:rgb(0%,0%,0%);fill-opacity:1;" d="M 34.101562 34.050781 L 34.101562 35.273438 L 34.796875 35.273438 C 35.46875 35.273438 35.488281 35.265625 35.488281 35.007812 C 35.488281 34.773438 35.445312 34.742188 35.117188 34.742188 C 34.816406 34.742188 34.742188 34.699219 34.742188 34.539062 C 34.742188 34.378906 34.828125 34.316406 35.09375 34.292969 C 35.351562 34.273438 35.445312 34.210938 35.46875 34.019531 C 35.5 33.816406 35.457031 33.785156 35.117188 33.785156 C 34.773438 33.785156 34.730469 33.75 34.765625 33.539062 C 34.785156 33.347656 34.847656 33.3125 35.148438 33.335938 C 35.457031 33.367188 35.488281 33.347656 35.488281 33.101562 C 35.488281 32.835938 35.46875 32.824219 34.796875 32.824219 L 34.101562 32.824219 Z M 34.101562 34.050781 "/>
<path style=" stroke:none;fill-rule:nonzero;fill:rgb(0%,0%,0%);fill-opacity:1;" d="M 36.339844 34.039062 L 36.339844 35.273438 L 36.609375 35.273438 C 36.863281 35.273438 36.875 35.253906 36.882812 34.550781 C 36.894531 33.847656 36.894531 33.847656 37.023438 34.210938 C 37.128906 34.488281 37.226562 34.582031 37.40625 34.582031 C 37.597656 34.582031 37.683594 34.496094 37.769531 34.210938 C 37.886719 33.847656 37.886719 33.867188 37.917969 34.550781 C 37.949219 35.242188 37.960938 35.273438 38.207031 35.273438 L 38.472656 35.273438 L 38.472656 32.824219 L 38.097656 32.824219 C 37.832031 32.824219 37.726562 32.867188 37.726562 32.984375 C 37.726562 33.078125 37.652344 33.324219 37.554688 33.550781 L 37.386719 33.941406 L 37.203125 33.410156 C 37.035156 32.941406 36.980469 32.878906 36.683594 32.84375 L 36.339844 32.8125 Z M 36.339844 34.039062 "/>
<path style=" stroke:none;fill-rule:nonzero;fill:rgb(0%,0%,0%);fill-opacity:1;" d="M 39.324219 33.164062 C 39.367188 33.355469 39.507812 33.75 39.632812 34.027344 C 39.75 34.316406 39.859375 34.710938 39.859375 34.914062 C 39.859375 35.242188 39.890625 35.273438 40.15625 35.273438 C 40.445312 35.273438 40.453125 35.242188 40.488281 34.773438 C 40.496094 34.496094 40.648438 33.953125 40.816406 33.570312 L 41.125 32.878906 L 40.796875 32.84375 C 40.421875 32.804688 40.285156 32.953125 40.285156 33.378906 C 40.285156 33.816406 40.125 33.742188 39.976562 33.25 C 39.867188 32.878906 39.804688 32.824219 39.550781 32.824219 C 39.261719 32.824219 39.238281 32.84375 39.324219 33.164062 Z M 39.324219 33.164062 "/>
<path style=" stroke:none;fill-rule:nonzero;fill:rgb(0%,0%,0%);fill-opacity:1;" d="M 11.414062 37.695312 C 11.425781 38.152344 11.457031 38.386719 11.476562 38.226562 C 11.511719 38.035156 11.617188 37.898438 11.777344 37.832031 C 12.277344 37.640625 12.191406 36.875 11.667969 36.875 C 11.402344 36.875 11.402344 36.882812 11.414062 37.695312 Z M 11.828125 37.351562 C 11.828125 37.523438 11.765625 37.621094 11.667969 37.621094 C 11.511719 37.621094 11.445312 37.289062 11.585938 37.160156 C 11.722656 37.011719 11.828125 37.097656 11.828125 37.351562 Z M 11.828125 37.351562 "/>
<path style=" stroke:none;fill-rule:nonzero;fill:rgb(0%,0%,0%);fill-opacity:1;" d="M 12.683594 37.664062 C 12.683594 38.132812 12.726562 38.472656 12.789062 38.472656 C 12.851562 38.472656 12.894531 38.324219 12.894531 38.140625 C 12.894531 37.738281 13.152344 37.769531 13.195312 38.183594 C 13.214844 38.34375 13.269531 38.472656 13.332031 38.472656 C 13.386719 38.472656 13.417969 38.121094 13.394531 37.695312 L 13.375 36.925781 L 13.035156 36.894531 L 12.683594 36.863281 Z M 13.160156 37.332031 C 13.160156 37.609375 12.949219 37.597656 12.917969 37.3125 C 12.882812 37.140625 12.925781 37.078125 13.023438 37.109375 C 13.097656 37.140625 13.160156 37.234375 13.160156 37.332031 Z M 13.160156 37.332031 "/>
<path style=" stroke:none;fill-rule:nonzero;fill:rgb(0%,0%,0%);fill-opacity:1;" d="M 14.109375 37.023438 C 14.078125 37.097656 14.066406 37.449219 14.089844 37.789062 C 14.121094 38.375 14.140625 38.417969 14.386719 38.417969 C 14.621094 38.417969 14.664062 38.355469 14.738281 37.941406 C 14.855469 37.34375 14.695312 36.875 14.386719 36.875 C 14.269531 36.875 14.140625 36.9375 14.109375 37.023438 Z M 14.492188 37.738281 C 14.492188 38.132812 14.449219 38.355469 14.386719 38.3125 C 14.195312 38.195312 14.257812 37.085938 14.460938 37.085938 C 14.484375 37.085938 14.492188 37.375 14.492188 37.738281 Z M 14.492188 37.738281 "/>
<path style=" stroke:none;fill-rule:nonzero;fill:rgb(0%,0%,0%);fill-opacity:1;" d="M 15.550781 36.949219 C 15.550781 37 15.550781 37.257812 15.558594 37.535156 C 15.570312 37.8125 15.515625 38.140625 15.453125 38.269531 C 15.335938 38.472656 15.347656 38.492188 15.507812 38.441406 C 15.601562 38.398438 15.707031 38.367188 15.730469 38.367188 C 15.75 38.367188 15.773438 38.023438 15.773438 37.621094 C 15.773438 37.195312 15.730469 36.875 15.667969 36.875 C 15.613281 36.875 15.558594 36.90625 15.550781 36.949219 Z M 15.550781 36.949219 "/>
<path style=" stroke:none;fill-rule:nonzero;fill:rgb(0%,0%,0%);fill-opacity:1;" d="M 16.410156 37.671875 L 16.410156 38.472656 L 16.816406 38.460938 C 17.15625 38.449219 17.167969 38.441406 16.945312 38.375 C 16.59375 38.28125 16.507812 37.84375 16.828125 37.757812 C 17.117188 37.683594 17.117188 37.511719 16.839844 37.511719 C 16.699219 37.511719 16.625 37.4375 16.625 37.300781 C 16.625 37.140625 16.699219 37.085938 16.890625 37.085938 C 17.039062 37.085938 17.15625 37.035156 17.15625 36.980469 C 17.15625 36.917969 16.988281 36.875 16.785156 36.875 L 16.410156 36.875 Z M 16.410156 37.671875 "/>
<path style=" stroke:none;fill-rule:nonzero;fill:rgb(0%,0%,0%);fill-opacity:1;" d="M 17.753906 37.042969 C 17.722656 37.140625 17.691406 37.46875 17.691406 37.789062 C 17.691406 38.410156 17.863281 38.609375 18.214844 38.398438 C 18.414062 38.269531 18.5 37.941406 18.339844 37.941406 C 18.277344 37.941406 18.222656 38.035156 18.222656 38.152344 C 18.222656 38.269531 18.179688 38.367188 18.117188 38.367188 C 17.863281 38.367188 17.839844 37.195312 18.097656 37.109375 C 18.160156 37.085938 18.222656 37.140625 18.222656 37.234375 C 18.222656 37.332031 18.277344 37.40625 18.332031 37.40625 C 18.46875 37.40625 18.46875 37.34375 18.332031 37.078125 C 18.191406 36.832031 17.839844 36.808594 17.753906 37.042969 Z M 17.753906 37.042969 "/>
<path style=" stroke:none;fill-rule:nonzero;fill:rgb(0%,0%,0%);fill-opacity:1;" d="M 18.96875 36.980469 C 18.96875 37.035156 19.023438 37.085938 19.078125 37.085938 C 19.140625 37.085938 19.183594 37.386719 19.183594 37.78125 C 19.183594 38.324219 19.214844 38.472656 19.34375 38.472656 C 19.46875 38.472656 19.503906 38.324219 19.503906 37.78125 C 19.503906 37.386719 19.546875 37.085938 19.609375 37.085938 C 19.671875 37.085938 19.714844 37.035156 19.714844 36.980469 C 19.714844 36.917969 19.546875 36.875 19.34375 36.875 C 19.140625 36.875 18.96875 36.917969 18.96875 36.980469 Z M 18.96875 36.980469 "/>
<path style=" stroke:none;fill-rule:nonzero;fill:rgb(0%,0%,0%);fill-opacity:1;" d="M 21.175781 36.9375 C 21.058594 37.054688 21.089844 38.34375 21.21875 38.417969 C 21.273438 38.460938 21.441406 38.460938 21.589844 38.429688 C 21.847656 38.367188 21.859375 38.332031 21.824219 37.640625 C 21.792969 36.96875 21.785156 36.925781 21.527344 36.894531 C 21.378906 36.875 21.21875 36.894531 21.175781 36.9375 Z M 21.613281 37.511719 C 21.65625 37.941406 21.558594 38.367188 21.421875 38.367188 C 21.355469 38.367188 21.3125 38.078125 21.3125 37.714844 C 21.3125 37.246094 21.347656 37.078125 21.453125 37.109375 C 21.515625 37.140625 21.589844 37.3125 21.613281 37.511719 Z M 21.613281 37.511719 "/>
<path style=" stroke:none;fill-rule:nonzero;fill:rgb(0%,0%,0%);fill-opacity:1;" d="M 22.488281 37.671875 C 22.488281 38.132812 22.53125 38.472656 22.59375 38.472656 C 22.65625 38.472656 22.699219 38.324219 22.699219 38.152344 C 22.699219 37.941406 22.753906 37.832031 22.859375 37.832031 C 22.945312 37.832031 23.019531 37.78125 23.019531 37.726562 C 23.019531 37.664062 22.945312 37.589844 22.859375 37.554688 C 22.773438 37.511719 22.699219 37.394531 22.699219 37.289062 C 22.699219 37.183594 22.773438 37.085938 22.859375 37.085938 C 22.945312 37.085938 23.019531 37.035156 23.019531 36.980469 C 23.019531 36.917969 22.902344 36.875 22.753906 36.875 C 22.496094 36.875 22.488281 36.894531 22.488281 37.671875 Z M 22.488281 37.671875 "/>
<path style=" stroke:none;fill-rule:nonzero;fill:rgb(0%,0%,0%);fill-opacity:1;" d="M 24.511719 37.671875 L 24.511719 38.472656 L 24.863281 38.460938 C 25.109375 38.449219 25.140625 38.429688 24.96875 38.398438 C 24.683594 38.34375 24.617188 37.863281 24.882812 37.769531 C 24.96875 37.726562 25.042969 37.664062 25.042969 37.609375 C 25.042969 37.554688 24.96875 37.511719 24.882812 37.511719 C 24.800781 37.511719 24.726562 37.417969 24.726562 37.300781 C 24.726562 37.160156 24.800781 37.085938 24.9375 37.085938 C 25.054688 37.085938 25.152344 37.035156 25.152344 36.980469 C 25.152344 36.917969 25.011719 36.875 24.832031 36.875 L 24.511719 36.875 Z M 24.511719 37.671875 "/>
<path style=" stroke:none;fill-rule:nonzero;fill:rgb(0%,0%,0%);fill-opacity:1;" d="M 26.855469 37.671875 L 26.855469 38.472656 L 27.207031 38.460938 C 27.453125 38.449219 27.484375 38.429688 27.3125 38.398438 C 27.089844 38.355469 27.070312 38.292969 27.070312 37.609375 C 27.070312 37.195312 27.027344 36.875 26.960938 36.875 C 26.898438 36.875 26.855469 37.214844 26.855469 37.671875 Z M 26.855469 37.671875 "/>
<path style=" stroke:none;fill-rule:nonzero;fill:rgb(0%,0%,0%);fill-opacity:1;" d="M 28.027344 37.671875 L 28.027344 38.472656 L 28.433594 38.460938 C 28.773438 38.449219 28.785156 38.441406 28.5625 38.375 C 28.210938 38.28125 28.125 37.84375 28.445312 37.757812 C 28.730469 37.683594 28.730469 37.511719 28.445312 37.511719 C 28.144531 37.511719 28.21875 37.152344 28.539062 37.109375 C 28.914062 37.054688 28.816406 36.875 28.402344 36.875 L 28.027344 36.875 Z M 28.027344 37.671875 "/>
<path style=" stroke:none;fill-rule:nonzero;fill:rgb(0%,0%,0%);fill-opacity:1;" d="M 29.425781 37.628906 C 29.359375 38.058594 29.328125 38.417969 29.371094 38.460938 C 29.414062 38.492188 29.46875 38.460938 29.488281 38.386719 C 29.542969 38.238281 29.839844 38.214844 29.839844 38.367188 C 29.839844 38.417969 29.902344 38.472656 29.988281 38.472656 C 30.097656 38.472656 30.105469 38.355469 30.042969 37.90625 C 29.902344 37.054688 29.851562 36.875 29.691406 36.875 C 29.59375 36.875 29.511719 37.128906 29.425781 37.628906 Z M 29.703125 37.90625 C 29.667969 38.015625 29.648438 37.929688 29.648438 37.726562 C 29.648438 37.523438 29.667969 37.4375 29.703125 37.535156 C 29.722656 37.640625 29.722656 37.8125 29.703125 37.90625 Z M 29.703125 37.90625 "/>
<path style=" stroke:none;fill-rule:nonzero;fill:rgb(0%,0%,0%);fill-opacity:1;" d="M 30.691406 37.671875 C 30.691406 38.132812 30.734375 38.472656 30.800781 38.472656 C 30.863281 38.472656 30.90625 38.324219 30.90625 38.152344 C 30.90625 37.941406 30.960938 37.832031 31.066406 37.832031 C 31.171875 37.832031 31.226562 37.941406 31.226562 38.152344 C 31.226562 38.367188 31.277344 38.472656 31.386719 38.472656 C 31.566406 38.472656 31.597656 38.089844 31.4375 37.832031 C 31.386719 37.738281 31.386719 37.628906 31.460938 37.546875 C 31.671875 37.289062 31.386719 36.875 31.011719 36.875 L 30.691406 36.875 Z M 31.203125 37.320312 C 31.183594 37.460938 31.128906 37.566406 31.066406 37.566406 C 31.011719 37.566406 30.949219 37.460938 30.925781 37.320312 C 30.90625 37.160156 30.949219 37.085938 31.066406 37.085938 C 31.183594 37.085938 31.226562 37.160156 31.203125 37.320312 Z M 31.203125 37.320312 "/>
<path style=" stroke:none;fill-rule:nonzero;fill:rgb(0%,0%,0%);fill-opacity:1;" d="M 32.078125 37.664062 C 32.078125 38.578125 32.28125 38.804688 32.300781 37.90625 L 32.3125 37.351562 L 32.492188 37.90625 C 32.578125 38.214844 32.695312 38.472656 32.738281 38.472656 C 32.792969 38.472656 32.824219 38.109375 32.824219 37.671875 C 32.824219 37.214844 32.78125 36.875 32.71875 36.875 C 32.664062 36.875 32.609375 37 32.601562 37.160156 L 32.589844 37.460938 L 32.515625 37.195312 C 32.472656 37.042969 32.355469 36.917969 32.257812 36.894531 C 32.097656 36.863281 32.078125 36.960938 32.078125 37.664062 Z M 32.078125 37.664062 "/>
<path style=" stroke:none;fill-rule:nonzero;fill:rgb(0%,0%,0%);fill-opacity:1;" d="M 33.601562 37.671875 C 33.601562 38.140625 33.625 38.324219 33.644531 38.066406 C 33.667969 37.824219 33.667969 37.4375 33.644531 37.214844 C 33.625 37 33.601562 37.203125 33.601562 37.671875 Z M 33.601562 37.671875 "/>
<path style=" stroke:none;fill-rule:nonzero;fill:rgb(0%,0%,0%);fill-opacity:1;" d="M 34.445312 37.695312 C 34.453125 38.429688 34.464844 38.449219 34.507812 37.941406 L 34.550781 37.351562 L 34.730469 37.875 C 35.019531 38.695312 35.167969 38.632812 35.167969 37.683594 C 35.167969 36.851562 35 36.554688 34.933594 37.269531 L 34.890625 37.671875 L 34.785156 37.3125 C 34.730469 37.109375 34.625 36.925781 34.550781 36.894531 C 34.453125 36.863281 34.421875 37.078125 34.445312 37.695312 Z M 34.445312 37.695312 "/>
<path style=" stroke:none;fill-rule:nonzero;fill:rgb(0%,0%,0%);fill-opacity:1;" d="M 35.851562 37.023438 C 35.820312 37.097656 35.808594 37.449219 35.828125 37.789062 C 35.863281 38.386719 35.871094 38.417969 36.160156 38.449219 C 36.414062 38.484375 36.449219 38.449219 36.46875 38.164062 C 36.46875 37.980469 36.480469 37.78125 36.488281 37.726562 C 36.5 37.664062 36.457031 37.628906 36.394531 37.640625 C 36.339844 37.664062 36.308594 37.832031 36.320312 38.035156 C 36.351562 38.292969 36.320312 38.375 36.214844 38.34375 C 36.03125 38.28125 36.019531 37.171875 36.203125 37.117188 C 36.265625 37.097656 36.339844 37.160156 36.371094 37.269531 C 36.40625 37.394531 36.425781 37.351562 36.4375 37.160156 C 36.449219 36.917969 36.40625 36.875 36.179688 36.875 C 36.03125 36.875 35.882812 36.9375 35.851562 37.023438 Z M 35.851562 37.023438 "/>
<path style=" stroke:none;fill-rule:nonzero;fill:rgb(0%,0%,0%);fill-opacity:1;" d="M 25.824219 37.640625 C 25.84375 37.714844 25.929688 37.78125 26.003906 37.78125 C 26.078125 37.78125 26.164062 37.714844 26.195312 37.640625 C 26.214844 37.566406 26.140625 37.511719 26.003906 37.511719 C 25.863281 37.511719 25.789062 37.566406 25.824219 37.640625 Z M 25.824219 37.640625 "/>
</g>
</svg>
